<?xml version="1.0" encoding="utf-8"?>
<!-- Generator: Adobe Illustrator 21.1.0, SVG Export Plug-In . SVG Version: 6.00 Build 0)  -->
<svg version="1.1" id="Layer_1" xmlns="http://www.w3.org/2000/svg" xmlns:xlink="http://www.w3.org/1999/xlink" x="0px" y="0px"
	 viewBox="0 0 24 24" style="enable-background:new 0 0 24 24;" xml:space="preserve">
<style type="text/css">
	.st0{fill:#FFFFFF;}
</style>
<title>Group 8 Copy</title>
<desc>Created with Sketch.</desc>
<g id="Page-2">
	<g id="homepageDesktop-Copy" transform="translate(-759.000000, -4021.000000)">
		
			<g id="Group-8-Copy" transform="translate(771.000000, 4033.000000) rotate(-90.000000) translate(-771.000000, -4033.000000) translate(759.000000, 4021.000000)">
			<g id="Group-18" transform="translate(6.640000, 6.640000)">
			</g>
			<path id="Combined-Shape" class="st0" d="M12.2,12.1c0.1,0,0.2,0,0.3-0.1l3.9-3.9c0.2-0.2,0.2-0.5,0-0.6c-0.2-0.2-0.4-0.2-0.6,0
				l-3.6,3.6L8.6,7.5C8.4,7.3,8.2,7.3,8,7.5C7.8,7.6,7.8,7.9,8,8.1l3.9,3.9C12,12.1,12.1,12.1,12.2,12.1z M12.6,17.3l4.8-4.8
				c0.2-0.2,0.2-0.5,0-0.6c-0.2-0.2-0.4-0.2-0.6,0l-4.5,4.5l-4.5-4.5c-0.2-0.2-0.4-0.2-0.6,0C7,12,7,12.3,7.1,12.5l4.8,4.8
				c0.1,0.1,0.2,0.1,0.3,0.1C12.3,17.4,12.5,17.4,12.6,17.3z"/>
		</g>
	</g>
</g>
</svg>
