<?xml version="1.0" encoding="UTF-8"?>
<svg width="37px" height="36px" viewBox="0 0 37 36" version="1.1" xmlns="http://www.w3.org/2000/svg" xmlns:xlink="http://www.w3.org/1999/xlink">
    <!-- Generator: Sketch 45 (43475) - http://www.bohemiancoding.com/sketch -->
    <title>Fill 118</title>
    <desc>Created with Sketch.</desc>
    <defs></defs>
    <g id="Page-1" stroke="none" stroke-width="1" fill="none" fill-rule="evenodd">
        <g id="homepageDesktop-Copy-5" transform="translate(-1189.000000, -705.000000)" fill="#FFFFFE">
            <g id="Group-39">
                <path d="M1206.3326,722.567025 C1206.36617,722.137162 1206.23495,721.699704 1205.90537,721.371611 L1192.29017,707.840804 C1191.69051,707.243856 1190.71701,707.243856 1190.1143,707.840804 C1189.51464,708.43927 1189.51464,709.406841 1190.1143,710.003789 L1202.75753,722.567025 L1190.1143,735.13178 C1189.51464,735.727208 1189.51464,736.696298 1190.1143,737.293245 C1190.71701,737.890193 1191.69051,737.890193 1192.29017,737.293245 L1205.90537,723.763957 C1206.23495,723.435864 1206.36617,722.998406 1206.3326,722.567025 L1206.3326,722.567025 Z M1224.36668,721.371611 L1207.67536,704.783157 C1207.0757,704.18621 1206.10068,704.18621 1205.49949,704.783157 C1204.8983,705.381624 1204.8983,706.349195 1205.49949,706.946142 L1221.21731,722.567025 L1205.49949,738.189426 C1204.8983,738.786373 1204.8983,739.753945 1205.49949,740.350892 C1206.10068,740.947839 1207.0757,740.947839 1207.67536,740.350892 L1224.36668,723.763957 C1224.69474,723.435864 1224.82596,722.998406 1224.79392,722.567025 C1224.82596,722.137162 1224.69474,721.699704 1224.36668,721.371611 L1224.36668,721.371611 Z" id="Fill-118" transform="translate(1207.231578, 722.567025) rotate(90.000000) translate(-1207.231578, -722.567025) "></path>
            </g>
        </g>
    </g>
</svg>